<svg width="20" height="20" viewBox="0 0 20 20" fill="none" xmlns="http://www.w3.org/2000/svg">
<path d="M7.73443 10C7.73443 10.5802 7.96489 11.1366 8.37513 11.5468C8.78537 11.957 9.34177 12.1875 9.92193 12.1875C10.5021 12.1875 11.0585 11.957 11.4687 11.5468C11.879 11.1366 12.1094 10.5802 12.1094 10C12.1094 9.41984 11.879 8.86344 11.4687 8.4532C11.0585 8.04297 10.5021 7.8125 9.92193 7.8125C9.34177 7.8125 8.78537 8.04297 8.37513 8.4532C7.96489 8.86344 7.73443 9.41984 7.73443 10V10ZM18.4024 9.49609C16.5508 5.5957 13.752 3.63281 10.0001 3.63281C6.24615 3.63281 3.44927 5.5957 1.59771 9.49805C1.52344 9.65531 1.48492 9.82706 1.48492 10.001C1.48492 10.1749 1.52344 10.3466 1.59771 10.5039C3.44927 14.4043 6.2481 16.3672 10.0001 16.3672C13.754 16.3672 16.5508 14.4043 18.4024 10.502C18.5528 10.1855 18.5528 9.81836 18.4024 9.49609V9.49609ZM9.92193 13.4375C8.02349 13.4375 6.48443 11.8984 6.48443 10C6.48443 8.10156 8.02349 6.5625 9.92193 6.5625C11.8204 6.5625 13.3594 8.10156 13.3594 10C13.3594 11.8984 11.8204 13.4375 9.92193 13.4375Z" fill="white"/>
</svg>
