<svg width="40" height="40" viewBox="0 0 40 40" fill="none" xmlns="http://www.w3.org/2000/svg">
<path d="M35 32.5H31.25C30.9115 32.5 30.6185 32.3763 30.3711 32.1289C30.1237 31.8815 30 31.5885 30 31.25V18.75C30 18.4115 30.1237 18.1185 30.3711 17.8711C30.6185 17.6237 30.9115 17.5 31.25 17.5H32.5C32.5 13.6458 31.4258 10.599 29.2773 8.35938C27.1289 6.11979 24.0365 5 20 5C15.9635 5 12.8711 6.11979 10.7227 8.35938C8.57422 10.599 7.5 13.6458 7.5 17.5H8.75C9.08854 17.5 9.38151 17.6237 9.62891 17.8711C9.8763 18.1185 10 18.4115 10 18.75V31.25C10 31.5885 9.8763 31.8815 9.62891 32.1289C9.38151 32.3763 9.08854 32.5 8.75 32.5H7.5C7.5 33.8802 7.98828 35.0586 8.96484 36.0352C9.94141 37.0117 11.1198 37.5 12.5 37.5H15C15 36.7969 15.2409 36.2044 15.7227 35.7227C16.2044 35.2409 16.7969 35 17.5 35H20C20.7031 35 21.2956 35.2409 21.7773 35.7227C22.2591 36.2044 22.5 36.7904 22.5 37.4805C22.5 38.1706 22.2591 38.763 21.7773 39.2578C21.2956 39.7526 20.7031 40 20 40H12.5C10.4167 40 8.64583 39.2708 7.1875 37.8125C5.72917 36.3542 5 34.5833 5 32.5C3.61979 32.5 2.44141 31.7708 1.46484 30.3125C0.488281 28.8542 0 27.0833 0 25C0 23.6458 0.227865 22.3958 0.683594 21.25C1.13932 20.1042 1.74479 19.2057 2.5 18.5547V17.5C2.5 15.1302 2.96224 12.8646 3.88672 10.7031C4.8112 8.54167 6.05469 6.67969 7.61719 5.11719C9.17969 3.55469 11.0417 2.3112 13.2031 1.38672C15.3646 0.46224 17.6302 0 20 0C22.3698 0 24.6354 0.46224 26.7969 1.38672C28.9583 2.3112 30.8203 3.55469 32.3828 5.11719C33.9453 6.67969 35.1888 8.54167 36.1133 10.7031C37.0378 12.8646 37.5 15.1302 37.5 17.5V18.5547C38.2552 19.2057 38.8607 20.1042 39.3164 21.25C39.7721 22.3958 40 23.6458 40 25C40 27.0833 39.5117 28.8542 38.5352 30.3125C37.5586 31.7708 36.3802 32.5 35 32.5Z" fill="white"/>
</svg>
