<svg width="20" height="20" viewBox="0 0 20 20" fill="none" xmlns="http://www.w3.org/2000/svg">
<path d="M17.7364 6.89845L12.7774 6.17774L10.5606 1.6836C10.5001 1.56055 10.4005 1.46094 10.2774 1.4004C9.96882 1.24805 9.59382 1.37501 9.43952 1.6836L7.22272 6.17774L2.26374 6.89845C2.12702 6.91798 2.00202 6.98243 1.90632 7.08009C1.79062 7.199 1.72686 7.35899 1.72906 7.52489C1.73126 7.6908 1.79923 7.84904 1.91804 7.96485L5.50593 11.4629L4.65827 16.4024C4.63839 16.5173 4.65111 16.6354 4.69497 16.7435C4.73884 16.8515 4.8121 16.9451 4.90645 17.0136C5.0008 17.0822 5.11246 17.1229 5.22878 17.1312C5.34509 17.1395 5.4614 17.115 5.56452 17.0606L10.0001 14.7285L14.4356 17.0606C14.5567 17.125 14.6973 17.1465 14.8321 17.1231C15.1719 17.0645 15.4005 16.7422 15.3419 16.4024L14.4942 11.4629L18.0821 7.96485C18.1798 7.86915 18.2442 7.74415 18.2637 7.60743C18.3165 7.26563 18.0782 6.94923 17.7364 6.89845V6.89845Z" fill="#F2A413"/>
</svg>
