<svg width="20" height="20" viewBox="0 0 20 20" fill="none" xmlns="http://www.w3.org/2000/svg">
<g clip-path="url(#clip0)">
<path fill-rule="evenodd" clip-rule="evenodd" d="M2.35635 0.637713C2.57507 0.419324 2.8377 0.249911 3.12685 0.1407C3.41599 0.03149 3.72504 -0.0150237 4.03352 0.00424152C4.342 0.0235068 4.64287 0.108111 4.91618 0.252448C5.18949 0.396785 5.429 0.597558 5.61885 0.841463L7.8626 3.72396C8.27385 4.25271 8.41885 4.94146 8.25635 5.59146L7.5726 8.32896C7.53725 8.47075 7.53916 8.61927 7.57814 8.7601C7.61713 8.90093 7.69187 9.02929 7.7951 9.13271L10.8664 12.204C10.9699 12.3074 11.0985 12.3823 11.2395 12.4213C11.3806 12.4603 11.5294 12.462 11.6714 12.4265L14.4076 11.7427C14.7284 11.6625 15.0632 11.6563 15.3867 11.7245C15.7102 11.7927 16.014 11.9336 16.2751 12.1365L19.1576 14.379C20.1939 15.1852 20.2889 16.7165 19.3614 17.6427L18.0689 18.9352C17.1439 19.8602 15.7614 20.2665 14.4726 19.8127C11.1741 18.6521 8.17919 16.7638 5.7101 14.2877C3.23421 11.819 1.34586 8.82454 0.1851 5.52646C-0.2674 4.23896 0.13885 2.85521 1.06385 1.93021L2.35635 0.637713Z" fill="black"/>
</g>
<defs>
<clipPath id="clip0">
<rect width="20" height="20" fill="white"/>
</clipPath>
</defs>
</svg>
