<svg width="20" height="20" viewBox="0 0 20 20" fill="none" xmlns="http://www.w3.org/2000/svg">
<path d="M4.82503 10.9412L11.6775 16.9362C12.485 17.6437 13.75 17.0687 13.75 15.995V4.00498C13.7502 3.76467 13.6812 3.5294 13.5511 3.32734C13.421 3.12528 13.2355 2.96499 13.0167 2.86567C12.7978 2.76635 12.555 2.73221 12.3173 2.76733C12.0796 2.80246 11.857 2.90537 11.6763 3.06373L4.82628 9.05873C4.69202 9.17606 4.58441 9.32075 4.51068 9.48309C4.43695 9.64544 4.3988 9.82168 4.3988 9.99998C4.3988 10.1783 4.43695 10.3545 4.51068 10.5169C4.58441 10.6792 4.69202 10.8239 4.82628 10.9412H4.82503Z" fill="white"/>
</svg>
