<svg width="20" height="20" viewBox="0 0 20 20" fill="none" xmlns="http://www.w3.org/2000/svg">
<path d="M15.175 10.9412L8.32247 16.9362C7.51497 17.6437 6.24997 17.0687 6.24997 15.995V4.00498C6.24977 3.76467 6.31883 3.5294 6.4489 3.32734C6.57896 3.12528 6.76452 2.96499 6.98334 2.86567C7.20216 2.76635 7.44497 2.73221 7.68269 2.76733C7.92042 2.80246 8.14298 2.90537 8.32372 3.06373L15.1737 9.05873C15.308 9.17606 15.4156 9.32075 15.4893 9.48309C15.5631 9.64544 15.6012 9.82168 15.6012 9.99998C15.6012 10.1783 15.5631 10.3545 15.4893 10.5169C15.4156 10.6792 15.308 10.8239 15.1737 10.9412H15.175Z" fill="white"/>
</svg>
