<svg width="20" height="20" viewBox="0 0 20 20" fill="none" xmlns="http://www.w3.org/2000/svg">
<path d="M2.5 5C2.5 4.33696 2.76339 3.70107 3.23223 3.23223C3.70107 2.76339 4.33696 2.5 5 2.5H15C15.663 2.5 16.2989 2.76339 16.7678 3.23223C17.2366 3.70107 17.5 4.33696 17.5 5V12.5C17.5 13.163 17.2366 13.7989 16.7678 14.2678C16.2989 14.7366 15.663 15 15 15H12.5V15.625C12.5 15.7908 12.5658 15.9497 12.6831 16.0669C12.8003 16.1842 12.9592 16.25 13.125 16.25H13.75C13.9158 16.25 14.0747 16.3158 14.1919 16.4331C14.3092 16.5503 14.375 16.7092 14.375 16.875C14.375 17.0408 14.3092 17.1997 14.1919 17.3169C14.0747 17.4342 13.9158 17.5 13.75 17.5H6.25C6.08424 17.5 5.92527 17.4342 5.80806 17.3169C5.69085 17.1997 5.625 17.0408 5.625 16.875C5.625 16.7092 5.69085 16.5503 5.80806 16.4331C5.92527 16.3158 6.08424 16.25 6.25 16.25H6.875C7.04076 16.25 7.19973 16.1842 7.31694 16.0669C7.43415 15.9497 7.5 15.7908 7.5 15.625V15H5C4.33696 15 3.70107 14.7366 3.23223 14.2678C2.76339 13.7989 2.5 13.163 2.5 12.5V5ZM11.3562 16.25C11.2875 16.0544 11.25 15.8438 11.25 15.625V15H8.75V15.625C8.75 15.8438 8.7125 16.0544 8.64375 16.25H11.3562ZM15 13.75C15.3315 13.75 15.6495 13.6183 15.8839 13.3839C16.1183 13.1495 16.25 12.8315 16.25 12.5H3.75C3.75 12.8315 3.8817 13.1495 4.11612 13.3839C4.35054 13.6183 4.66848 13.75 5 13.75H15ZM16.25 5C16.25 4.66848 16.1183 4.35054 15.8839 4.11612C15.6495 3.8817 15.3315 3.75 15 3.75H5C4.66848 3.75 4.35054 3.8817 4.11612 4.11612C3.8817 4.35054 3.75 4.66848 3.75 5V11.25H16.25V5Z" fill="#F2A413"/>
</svg>
