<svg width="40" height="40" viewBox="0 0 40 40" fill="none" xmlns="http://www.w3.org/2000/svg">
<path d="M6.94442 12.777L13.3333 14.6215L20.3555 9.52148L10.2778 9.81037C10.1791 9.81576 10.0834 9.84637 9.99998 9.89926L6.81109 11.7326C6.71189 11.7876 6.63147 11.871 6.58022 11.9722C6.52897 12.0733 6.50924 12.1875 6.52361 12.3C6.53797 12.4125 6.58575 12.5181 6.66077 12.6031C6.73579 12.6882 6.8346 12.7488 6.94442 12.777Z" fill="#F2A413"/>
<path d="M38.3555 7.0657L31.3555 5.55459C30.7668 5.42679 30.1575 5.42712 29.569 5.55557C28.9804 5.68402 28.4264 5.93758 27.9444 6.29904L6.79999 21.6657L1.72221 21.4435C1.43136 21.4336 1.14476 21.5153 0.902859 21.6771C0.660962 21.8389 0.475998 22.0726 0.374084 22.3452C0.27217 22.6178 0.258455 22.9155 0.334876 23.1963C0.411298 23.4771 0.573994 23.7268 0.799992 23.9101L5.74444 27.8324C5.82583 27.898 5.92272 27.9417 6.02583 27.9592C6.12894 27.9767 6.23481 27.9675 6.33332 27.9324C7.74444 27.3879 13 24.599 19.2111 21.1879L20.4555 33.9768C20.4661 34.0876 20.5067 34.1934 20.573 34.2827C20.6392 34.3721 20.7286 34.4417 20.8315 34.484C20.9344 34.5263 21.0469 34.5397 21.1569 34.5228C21.2669 34.5059 21.3701 34.4592 21.4555 34.3879L24.2333 32.0768C24.3854 31.9493 24.4877 31.7723 24.5222 31.5768L27.1555 16.8101C31.6 14.3435 35.8444 11.9546 38.8333 10.2657C39.1435 10.0969 39.3943 9.83688 39.5517 9.52079C39.7092 9.20471 39.7657 8.84787 39.7135 8.49862C39.6614 8.14937 39.5031 7.82459 39.2602 7.56828C39.0173 7.31197 38.7015 7.13652 38.3555 7.0657Z" fill="#F2A413"/>
</svg>
