<svg width="40" height="40" viewBox="0 0 40 40" fill="none" xmlns="http://www.w3.org/2000/svg">
<path d="M20 3.33398C10.81 3.33398 3.33331 10.8107 3.33331 20.0007C3.33331 29.1907 10.81 36.6673 20 36.6673C29.19 36.6673 36.6666 29.1907 36.6666 20.0007C36.6666 10.8107 29.19 3.33398 20 3.33398ZM20 33.334C12.6483 33.334 6.66665 27.3523 6.66665 20.0007C6.66665 12.649 12.6483 6.66732 20 6.66732C27.3516 6.66732 33.3333 12.649 33.3333 20.0007C33.3333 27.3523 27.3516 33.334 20 33.334Z" fill="#F2A413"/>
<path d="M24.715 24.7132C24.1058 25.3205 23.3862 25.8058 22.595 26.1432C21.1705 26.7446 19.5813 26.8324 18.0992 26.3916C16.6171 25.9508 15.3343 25.0087 14.47 23.7266L11.7067 25.5916C12.4274 26.6551 13.3443 27.5715 14.4083 28.2916C15.4911 29.0238 16.7076 29.5352 17.9883 29.7966C19.3163 30.0674 20.6853 30.0674 22.0133 29.7966C23.2939 29.5348 24.5104 29.0234 25.5933 28.2916C26.115 27.9382 26.6133 27.5282 27.07 27.0732C27.5233 26.6216 27.9367 26.1216 28.2933 25.5916L25.53 23.7266C25.2905 24.0807 25.0175 24.4111 24.715 24.7132Z" fill="#F2A413"/>
<path d="M14.1667 20C15.5474 20 16.6667 18.8807 16.6667 17.5C16.6667 16.1193 15.5474 15 14.1667 15C12.786 15 11.6667 16.1193 11.6667 17.5C11.6667 18.8807 12.786 20 14.1667 20Z" fill="#F2A413"/>
<path d="M25.8216 19.9767C27.1959 19.9767 28.31 18.8626 28.31 17.4883C28.31 16.1141 27.1959 15 25.8216 15C24.4474 15 23.3333 16.1141 23.3333 17.4883C23.3333 18.8626 24.4474 19.9767 25.8216 19.9767Z" fill="#F2A413"/>
</svg>
