<svg width="20" height="20" viewBox="0 0 20 20" fill="none" xmlns="http://www.w3.org/2000/svg">
<path d="M9.16669 5H13.3334V6.66667H9.16669V5ZM6.66669 7.5V2.5H15.8334V7.5C16.4964 7.5 17.1323 7.76339 17.6011 8.23223C18.07 8.70107 18.3334 9.33696 18.3334 10V15H15.8334V17.5H6.66669V15H5.83335V7.5H6.66669ZM8.33335 4.16667V7.5H14.1667V4.16667H8.33335ZM8.33335 12.5V15.8333H14.1667V12.5H8.33335ZM15.8334 9.16667C15.6123 9.16667 15.4004 9.25446 15.2441 9.41074C15.0878 9.56702 15 9.77899 15 10C15 10.221 15.0878 10.433 15.2441 10.5893C15.4004 10.7455 15.6123 10.8333 15.8334 10.8333C16.0544 10.8333 16.2663 10.7455 16.4226 10.5893C16.5789 10.433 16.6667 10.221 16.6667 10C16.6667 9.77899 16.5789 9.56702 16.4226 9.41074C16.2663 9.25446 16.0544 9.16667 15.8334 9.16667ZM3.33335 7.5H4.16669C4.3877 7.5 4.59966 7.5878 4.75594 7.74408C4.91222 7.90036 5.00002 8.11232 5.00002 8.33333V14.1667C5.00002 14.3877 4.91222 14.5996 4.75594 14.7559C4.59966 14.9122 4.3877 15 4.16669 15H3.33335C2.89133 15 2.4674 14.8244 2.15484 14.5118C1.84228 14.1993 1.66669 13.7754 1.66669 13.3333V9.16667C1.66669 8.72464 1.84228 8.30072 2.15484 7.98816C2.4674 7.67559 2.89133 7.5 3.33335 7.5V7.5Z" fill="black"/>
</svg>
