<svg width="10" height="10" viewBox="0 0 10 10" fill="none" xmlns="http://www.w3.org/2000/svg">
<path d="M1.17221 6.44358L0.644433 8.72135C0.626227 8.80462 0.626851 8.8909 0.64626 8.97389C0.665669 9.05689 0.703373 9.1345 0.756617 9.20105C0.809862 9.26761 0.877301 9.32143 0.95401 9.35858C1.03072 9.39573 1.11476 9.41528 1.19999 9.4158C1.2397 9.41981 1.27972 9.41981 1.31943 9.4158L3.6111 8.88802L8.0111 4.50469L5.55554 2.05469L1.17221 6.44358Z" fill="#B7AAAA"/>
<path d="M9.39444 2.31018L7.75555 0.671292C7.6478 0.564087 7.50199 0.503906 7.34999 0.503906C7.198 0.503906 7.05218 0.564087 6.94444 0.671292L6.03333 1.5824L8.4861 4.03518L9.39721 3.12407C9.45053 3.07048 9.49276 3.0069 9.52148 2.93698C9.5502 2.86705 9.56486 2.79214 9.5646 2.71655C9.56434 2.64095 9.54918 2.56615 9.51998 2.49642C9.49078 2.42669 9.44812 2.3634 9.39444 2.31018V2.31018Z" fill="#B7AAAA"/>
</svg>
