<svg width="20" height="20" viewBox="0 0 20 20" fill="none" xmlns="http://www.w3.org/2000/svg">
<path d="M9.22834 2.19352C9.495 1.49018 10.5042 1.49018 10.7717 2.19352L12.4967 6.97185C12.6175 7.28852 12.925 7.49935 13.2683 7.49935H17.5075C18.2908 7.49935 18.6325 8.47435 18.0167 8.95185L15 11.666C14.8649 11.7699 14.7661 11.9139 14.7179 12.0774C14.6697 12.2409 14.6745 12.4154 14.7317 12.576L15.8333 17.2452C16.1017 17.9952 15.2333 18.6393 14.5767 18.1777L10.4792 15.5777C10.3388 15.4791 10.1715 15.4261 10 15.4261C9.82849 15.4261 9.66116 15.4791 9.52084 15.5777L5.42334 18.1777C4.7675 18.6393 3.89834 17.9943 4.16667 17.2452L5.26834 12.576C5.32549 12.4154 5.3303 12.2409 5.28209 12.0774C5.23389 11.9139 5.13513 11.7699 5 11.666L1.98334 8.95185C1.36667 8.47435 1.71 7.49935 2.49167 7.49935H6.73084C6.89775 7.4999 7.06089 7.44977 7.19868 7.35558C7.33648 7.26138 7.44242 7.12757 7.5025 6.97185L9.2275 2.19352H9.22834Z" stroke="#F2A413" stroke-width="2" stroke-linecap="round" stroke-linejoin="round"/>
</svg>
