<svg width="20" height="20" viewBox="0 0 20 20" fill="none" xmlns="http://www.w3.org/2000/svg">
<path d="M9.22834 2.19547C9.495 1.49214 10.5042 1.49214 10.7717 2.19547L12.4967 6.9738C12.6175 7.29047 12.925 7.5013 13.2683 7.5013H17.5075C18.2908 7.5013 18.6325 8.4763 18.0167 8.9538L15 11.668C14.8649 11.7718 14.7661 11.9159 14.7179 12.0794C14.6697 12.2428 14.6745 12.4174 14.7317 12.578L15.8333 17.2471C16.1017 17.9971 15.2333 18.6413 14.5767 18.1796L10.4792 15.5796C10.3388 15.481 10.1715 15.4281 10 15.4281C9.82849 15.4281 9.66116 15.481 9.52084 15.5796L5.42334 18.1796C4.7675 18.6413 3.89834 17.9963 4.16667 17.2471L5.26834 12.578C5.32549 12.4174 5.3303 12.2428 5.28209 12.0794C5.23389 11.9159 5.13513 11.7718 5 11.668L1.98334 8.9538C1.36667 8.4763 1.71 7.5013 2.49167 7.5013H6.73084C6.89775 7.50186 7.06089 7.45172 7.19868 7.35753C7.33648 7.26334 7.44242 7.12952 7.5025 6.9738L9.2275 2.19547H9.22834Z" stroke="#F2A413" stroke-width="2" stroke-linecap="round" stroke-linejoin="round"/>
</svg>
