<svg width="40" height="40" viewBox="0 0 40 40" fill="none" xmlns="http://www.w3.org/2000/svg">
<path d="M31.25 12.75V5.3125C31.2495 4.89825 31.0848 4.50109 30.7918 4.20817C30.4989 3.91525 30.1018 3.75048 29.6875 3.75H10.3125C9.89825 3.75048 9.50109 3.91525 9.20817 4.20817C8.91525 4.50109 8.75048 4.89825 8.75 5.3125V12.75L1.25 18.1067V38.75H38.75V18.1067L31.25 12.75ZM35.4437 18.8177L31.25 21.5594V15.8219L35.4437 18.8177ZM11.25 6.25H28.75V23.194L24.2839 26.1141L20.645 24.2273L16.6791 26.1419L11.25 22.8457V6.25ZM20.605 27.0227L36.25 35.1349V36.25H3.75V35.1596L20.605 27.0227ZM3.75 21.2168L13.9956 27.4375L3.75 32.3835V21.2168ZM26.8317 27.4355L36.25 21.2771V32.3188L26.8317 27.4355ZM8.75 15.8219V21.3281L4.58328 18.798L8.75 15.8219Z" fill="#FEFEFE"/>
</svg>
