<svg width="20" height="20" viewBox="0 0 20 20" fill="none" xmlns="http://www.w3.org/2000/svg">
<path d="M4.46432 4.28516C4.03808 4.28516 3.6293 4.45448 3.3279 4.75588C3.0265 5.05728 2.85718 5.46606 2.85718 5.8923V12.3209C2.85718 12.7471 3.0265 13.1559 3.3279 13.4573C3.6293 13.7587 4.03808 13.928 4.46432 13.928H15.5357C15.962 13.928 16.3708 13.7587 16.6722 13.4573C16.9736 13.1559 17.1429 12.7471 17.1429 12.3209V5.8923C17.1429 5.46606 16.9736 5.05728 16.6722 4.75588C16.3708 4.45448 15.962 4.28516 15.5357 4.28516H4.46432ZM3.92861 5.8923C3.92861 5.75022 3.98505 5.61396 4.08551 5.51349C4.18598 5.41303 4.32224 5.35658 4.46432 5.35658H15.5357C15.6778 5.35658 15.8141 5.41303 15.9146 5.51349C16.015 5.61396 16.0715 5.75022 16.0715 5.8923V12.3209C16.0715 12.463 16.015 12.5992 15.9146 12.6997C15.8141 12.8001 15.6778 12.8566 15.5357 12.8566H4.46432C4.32224 12.8566 4.18598 12.8001 4.08551 12.6997C3.98505 12.5992 3.92861 12.463 3.92861 12.3209V5.8923Z" fill="#A4A0A0"/>
<path d="M1.9643 14.6426C1.82222 14.6426 1.68596 14.699 1.5855 14.7995C1.48503 14.9 1.42859 15.0362 1.42859 15.1783C1.42859 15.3204 1.48503 15.4566 1.5855 15.5571C1.68596 15.6576 1.82222 15.714 1.9643 15.714H18.0357C18.1778 15.714 18.3141 15.6576 18.4145 15.5571C18.515 15.4566 18.5714 15.3204 18.5714 15.1783C18.5714 15.0362 18.515 14.9 18.4145 14.7995C18.3141 14.699 18.1778 14.6426 18.0357 14.6426H1.9643Z" fill="#A4A0A0"/>
</svg>
