<svg width="20" height="20" viewBox="0 0 20 20" fill="none" xmlns="http://www.w3.org/2000/svg">
<path d="M10.8334 1.66602H9.16669C6.40919 1.66602 4.16669 3.90852 4.16669 6.66602V13.3327C4.16669 16.0902 6.40919 18.3327 9.16669 18.3327H10.8334C13.5909 18.3327 15.8334 16.0902 15.8334 13.3327V6.66602C15.8334 3.90852 13.5909 1.66602 10.8334 1.66602ZM9.16669 3.33268V8.33268H5.83335V6.66602C5.83335 4.82768 7.32835 3.33268 9.16669 3.33268ZM14.1667 13.3327C14.1667 15.171 12.6717 16.666 10.8334 16.666H9.16669C7.32835 16.666 5.83335 15.171 5.83335 13.3327V9.99935H14.1667V13.3327ZM10.8334 8.33268V3.33268C12.6717 3.33268 14.1667 4.82768 14.1667 6.66602V8.33268H10.8334Z" fill="#A4A0A0"/>
</svg>
