<svg width="20" height="20" viewBox="0 0 20 20" fill="none" xmlns="http://www.w3.org/2000/svg">
<path d="M16.1333 5.83333H15V4.16667C15.0181 3.74361 14.8677 3.33062 14.5819 3.01822C14.296 2.70581 13.898 2.51946 13.475 2.5H6.52498C6.10197 2.51946 5.70394 2.70581 5.41809 3.01822C5.13224 3.33062 4.98188 3.74361 4.99998 4.16667V5.83333H3.86664C3.28019 5.83774 2.71939 6.07437 2.30704 6.4914C1.8947 6.90843 1.66442 7.47187 1.66664 8.05833V13.6083C1.66442 14.1948 1.8947 14.7582 2.30704 15.1753C2.71939 15.5923 3.28019 15.8289 3.86664 15.8333H4.58331C4.58331 16.2754 4.7589 16.6993 5.07146 17.0118C5.38402 17.3244 5.80795 17.5 6.24998 17.5H13.75C14.192 17.5 14.6159 17.3244 14.9285 17.0118C15.241 16.6993 15.4166 16.2754 15.4166 15.8333H16.1333C16.7198 15.8289 17.2806 15.5923 17.6929 15.1753C18.1053 14.7582 18.3355 14.1948 18.3333 13.6083V8.05833C18.3355 7.47187 18.1053 6.90843 17.6929 6.4914C17.2806 6.07437 16.7198 5.83774 16.1333 5.83333ZM6.66664 4.16667H13.3333V5.83333H6.66664V4.16667ZM6.24998 15.8333V12.5H13.75V15.8333H6.24998ZM16.6666 13.6083C16.6689 13.7528 16.6142 13.8923 16.5144 13.9968C16.4146 14.1013 16.2777 14.1623 16.1333 14.1667H15.4166V12.5C15.4166 12.058 15.241 11.634 14.9285 11.3215C14.6159 11.0089 14.192 10.8333 13.75 10.8333H6.24998C5.80795 10.8333 5.38402 11.0089 5.07146 11.3215C4.7589 11.634 4.58331 12.058 4.58331 12.5V14.1667H3.86664C3.72223 14.1623 3.58533 14.1013 3.48553 13.9968C3.38573 13.8923 3.33105 13.7528 3.33331 13.6083V8.05833C3.33105 7.91387 3.38573 7.77432 3.48553 7.66985C3.58533 7.56537 3.72223 7.50436 3.86664 7.5H16.1333C16.2777 7.50436 16.4146 7.56537 16.5144 7.66985C16.6142 7.77432 16.6689 7.91387 16.6666 8.05833V13.6083Z" fill="#A4A0A0"/>
</svg>
