<svg width="20" height="20" viewBox="0 0 20 20" fill="none" xmlns="http://www.w3.org/2000/svg">
<path d="M13.6437 0.625H6.35632L5.38866 5.78578C4.33466 6.93617 3.75 8.43977 3.75 10C3.75 11.5602 4.33466 13.0638 5.38866 14.2142L6.35632 19.375H13.6437L14.6114 14.2142C15.6654 13.0638 16.2501 11.5602 16.2501 10C16.2501 8.43977 15.6654 6.93617 14.6114 5.78578L13.6437 0.625ZM7.39374 1.875H12.6063L13.1141 4.58246C12.167 4.03706 11.0932 3.75 10.0002 3.75C8.90721 3.75 7.83341 4.03706 6.88624 4.58246L7.39374 1.875ZM12.6063 18.125H7.39374L6.88593 15.4175C7.8331 15.9629 8.9069 16.25 9.99987 16.25C11.0928 16.25 12.1666 15.9629 13.1138 15.4175L12.6063 18.125ZM10 15C9.01112 15 8.04442 14.7068 7.22218 14.1573C6.39993 13.6079 5.75907 12.827 5.38063 11.9134C5.00219 10.9998 4.90318 9.99445 5.0961 9.02455C5.28903 8.05464 5.76523 7.16373 6.46449 6.46447C7.16376 5.7652 8.05467 5.289 9.02458 5.09607C9.99448 4.90315 10.9998 5.00216 11.9134 5.3806C12.8271 5.75904 13.608 6.3999 14.1574 7.22215C14.7068 8.04439 15 9.01109 15 10C14.9985 11.3256 14.4713 12.5965 13.5339 13.5339C12.5965 14.4712 11.3256 14.9985 10 15Z" fill="#F2A413"/>
</svg>
