<svg width="30" height="30" viewBox="0 0 30 30" fill="none" xmlns="http://www.w3.org/2000/svg">
<path d="M16.7625 14.9993L22.1375 9.63676C22.3729 9.40138 22.5051 9.08213 22.5051 8.74926C22.5051 8.41638 22.3729 8.09713 22.1375 7.86176C21.9021 7.62638 21.5829 7.49414 21.25 7.49414C20.9171 7.49414 20.5979 7.62638 20.3625 7.86176L15 13.2368L9.63748 7.86176C9.40211 7.62638 9.08286 7.49414 8.74998 7.49414C8.41711 7.49414 8.09786 7.62638 7.86248 7.86176C7.62711 8.09713 7.49487 8.41638 7.49487 8.74926C7.49487 9.08213 7.62711 9.40138 7.86248 9.63676L13.2375 14.9993L7.86248 20.3618C7.74532 20.478 7.65233 20.6162 7.58887 20.7685C7.52541 20.9209 7.49274 21.0842 7.49274 21.2493C7.49274 21.4143 7.52541 21.5777 7.58887 21.73C7.65233 21.8823 7.74532 22.0206 7.86248 22.1368C7.97869 22.2539 8.11694 22.3469 8.26926 22.4104C8.42159 22.4738 8.58497 22.5065 8.74998 22.5065C8.915 22.5065 9.07838 22.4738 9.23071 22.4104C9.38303 22.3469 9.52128 22.2539 9.63748 22.1368L15 16.7618L20.3625 22.1368C20.4787 22.2539 20.6169 22.3469 20.7693 22.4104C20.9216 22.4738 21.085 22.5065 21.25 22.5065C21.415 22.5065 21.5784 22.4738 21.7307 22.4104C21.883 22.3469 22.0213 22.2539 22.1375 22.1368C22.2546 22.0206 22.3476 21.8823 22.4111 21.73C22.4746 21.5777 22.5072 21.4143 22.5072 21.2493C22.5072 21.0842 22.4746 20.9209 22.4111 20.7685C22.3476 20.6162 22.2546 20.478 22.1375 20.3618L16.7625 14.9993Z" fill="#F2A413"/>
</svg>
